# xmcd
#
# Track frame offsets:
# 150
# 17444
# 32160
# 47579
# 63621
# 78909
# 95326
# 113016
# 134905
# 158725
# 175108
# 187992
# 207138
# 230355
# 249420
# 266436
# 281799
# 299987
# 319031
#
# Disc length: 4527 seconds
#
#
# Revision: 0
# Processed by: cddbd v1.5.2PL0 Copyright (c) Steve Scherf et al.
# Submitted via: FreeRIP 2.942 
#
DISCID=0d11ad13
DTITLE=Fernando and Sorocaba - 
DYEAR=1900
DGENRE=Country
TTITLE0=Bala de Prata
TTITLE1=Aqui a tristeza pula de alegria
TTITLE2=A como eu amo voce
TTITLE3=Juliana
TTITLE4=Mulher do parana
TTITLE5=Vem ficar do meu lado
TTITLE6=O amor
TTITLE7=Noite enluarada
TTITLE8=Companheiro
TTITLE9=Deusa Menina
TTITLE10=Segura Peao
TTITLE11=Volta la pro seu lugar
TTITLE12=Country roads
TTITLE13=Brilho no olhar
TTITLE14=Mais que uma madrugada
TTITLE15=Eu deixo ela mentir
TTITLE16=Luz da minha manha
TTITLE17=Porta da paixao
TTITLE18=Nao sei como viver
EXTD=
EXTT0=
EXTT1=
EXTT2=
EXTT3=
EXTT4=
EXTT5=
EXTT6=
EXTT7=
EXTT8=
EXTT9=
EXTT10=
EXTT11=
EXTT12=
EXTT13=
EXTT14=
EXTT15=
EXTT16=
EXTT17=
EXTT18=
PLAYORDER=
